<svg width="428" height="171" viewBox="0 0 428 171" fill="none" xmlns="http://www.w3.org/2000/svg">
<path d="M197.458 130.504V112.03H189.998V109.961H207.336V112.03H199.876V130.504H197.458ZM209.625 130.504V109.961H211.985V118.674C212.452 117.819 213.102 117.178 213.938 116.751C214.792 116.304 215.744 116.081 216.793 116.081C220.154 116.081 221.834 117.946 221.834 121.675V130.504H219.474V121.821C219.474 120.5 219.212 119.538 218.687 118.936C218.182 118.315 217.366 118.004 216.24 118.004C214.938 118.004 213.899 118.412 213.122 119.228C212.364 120.024 211.985 121.093 211.985 122.433V130.504H209.625ZM232.568 130.767C230.334 130.767 228.566 130.116 227.265 128.814C225.963 127.493 225.312 125.706 225.312 123.453C225.312 121.996 225.604 120.714 226.186 119.606C226.769 118.48 227.566 117.615 228.576 117.013C229.605 116.391 230.79 116.081 232.131 116.081C234.054 116.081 235.559 116.702 236.647 117.946C237.735 119.169 238.279 120.859 238.279 123.016V123.919H227.614C227.692 125.531 228.158 126.765 229.013 127.62C229.868 128.455 231.053 128.873 232.568 128.873C233.423 128.873 234.238 128.746 235.015 128.494C235.793 128.222 236.531 127.785 237.23 127.183L238.046 128.843C237.405 129.446 236.589 129.922 235.598 130.271C234.608 130.602 233.597 130.767 232.568 130.767ZM232.189 117.829C230.849 117.829 229.79 118.247 229.013 119.082C228.236 119.917 227.779 121.015 227.643 122.375H236.239C236.181 120.937 235.802 119.82 235.103 119.024C234.423 118.227 233.452 117.829 232.189 117.829ZM254.191 130.767C250.791 130.767 249.091 128.892 249.091 125.143V116.343H251.452V125.114C251.452 126.376 251.704 127.309 252.209 127.911C252.734 128.513 253.55 128.814 254.657 128.814C255.861 128.814 256.842 128.416 257.6 127.62C258.358 126.804 258.736 125.726 258.736 124.385V116.343H261.097V130.504H258.795V128.115C258.348 128.97 257.716 129.63 256.901 130.096C256.104 130.543 255.201 130.767 254.191 130.767ZM265.512 130.504V116.343H267.814V118.761C268.281 117.868 268.941 117.198 269.796 116.751C270.651 116.304 271.612 116.081 272.681 116.081C276.041 116.081 277.722 117.946 277.722 121.675V130.504H275.361V121.821C275.361 120.5 275.099 119.538 274.575 118.936C274.07 118.315 273.254 118.004 272.127 118.004C270.825 118.004 269.786 118.412 269.009 119.228C268.252 120.024 267.873 121.093 267.873 122.433V130.504H265.512ZM281.782 112.817V110.165H284.696V112.817H281.782ZM282.074 130.504V116.343H284.434V130.504H282.074ZM293.013 130.504L286.923 116.343H289.487L294.179 127.824L298.928 116.343H301.347L295.228 130.504H293.013ZM310.025 130.767C307.791 130.767 306.023 130.116 304.722 128.814C303.42 127.493 302.769 125.706 302.769 123.453C302.769 121.996 303.061 120.714 303.643 119.606C304.226 118.48 305.023 117.615 306.033 117.013C307.062 116.391 308.247 116.081 309.588 116.081C311.511 116.081 313.016 116.702 314.104 117.946C315.192 119.169 315.736 120.859 315.736 123.016V123.919H305.071C305.149 125.531 305.615 126.765 306.47 127.62C307.325 128.455 308.51 128.873 310.025 128.873C310.88 128.873 311.695 128.746 312.472 128.494C313.25 128.222 313.988 127.785 314.687 127.183L315.503 128.843C314.862 129.446 314.046 129.922 313.055 130.271C312.065 130.602 311.054 130.767 310.025 130.767ZM309.646 117.829C308.306 117.829 307.247 118.247 306.47 119.082C305.693 119.917 305.236 121.015 305.1 122.375H313.696C313.638 120.937 313.259 119.82 312.56 119.024C311.88 118.227 310.909 117.829 309.646 117.829ZM319.152 130.504V116.343H321.454V118.878C322.211 117.169 323.766 116.226 326.116 116.052L326.961 115.964L327.136 118.004L325.65 118.179C324.309 118.295 323.29 118.723 322.59 119.461C321.891 120.18 321.541 121.17 321.541 122.433V130.504H319.152ZM334.232 130.767C333.124 130.767 332.075 130.611 331.085 130.3C330.094 129.99 329.278 129.553 328.637 128.989L329.395 127.328C330.094 127.892 330.861 128.309 331.697 128.581C332.551 128.834 333.416 128.96 334.29 128.96C335.397 128.96 336.233 128.756 336.796 128.348C337.359 127.94 337.641 127.387 337.641 126.687C337.641 126.143 337.456 125.716 337.087 125.405C336.718 125.075 336.135 124.822 335.339 124.647L332.687 124.065C330.279 123.54 329.074 122.297 329.074 120.335C329.074 119.053 329.579 118.023 330.589 117.246C331.619 116.469 332.959 116.081 334.611 116.081C335.582 116.081 336.505 116.236 337.379 116.547C338.272 116.838 339.01 117.275 339.593 117.858L338.806 119.519C338.243 118.995 337.583 118.596 336.825 118.324C336.087 118.033 335.349 117.887 334.611 117.887C333.523 117.887 332.697 118.101 332.134 118.528C331.57 118.956 331.289 119.519 331.289 120.218C331.289 121.306 332.007 122.006 333.445 122.316L336.097 122.87C337.34 123.142 338.282 123.579 338.923 124.181C339.564 124.764 339.885 125.561 339.885 126.571C339.885 127.872 339.37 128.902 338.34 129.659C337.311 130.398 335.941 130.767 334.232 130.767ZM347.94 130.767C346.969 130.767 346.094 130.582 345.317 130.213C344.56 129.824 343.958 129.3 343.511 128.64C343.064 127.979 342.841 127.241 342.841 126.425C342.841 125.395 343.103 124.579 343.627 123.977C344.171 123.375 345.055 122.948 346.279 122.695C347.522 122.423 349.212 122.287 351.349 122.287H352.282V121.384C352.282 120.18 352.029 119.315 351.524 118.791C351.038 118.247 350.252 117.975 349.164 117.975C348.309 117.975 347.483 118.101 346.687 118.353C345.891 118.587 345.075 118.975 344.239 119.519L343.423 117.8C344.162 117.275 345.055 116.858 346.104 116.547C347.173 116.236 348.192 116.081 349.164 116.081C350.99 116.081 352.34 116.527 353.214 117.421C354.108 118.315 354.554 119.704 354.554 121.588V130.504H352.34V128.057C351.971 128.892 351.398 129.553 350.621 130.038C349.863 130.524 348.97 130.767 347.94 130.767ZM348.319 128.989C349.484 128.989 350.436 128.591 351.174 127.794C351.913 126.979 352.282 125.949 352.282 124.706V123.832H351.378C349.805 123.832 348.562 123.909 347.649 124.065C346.755 124.201 346.124 124.453 345.755 124.822C345.405 125.172 345.23 125.658 345.23 126.279C345.23 127.076 345.502 127.726 346.046 128.232C346.609 128.737 347.367 128.989 348.319 128.989ZM363.275 130.767C361.837 130.767 360.75 130.349 360.011 129.514C359.293 128.659 358.933 127.425 358.933 125.813V109.961H361.293V125.638C361.293 127.717 362.119 128.756 363.77 128.756C364.256 128.756 364.693 128.698 365.082 128.581L365.023 130.563C364.421 130.699 363.838 130.767 363.275 130.767ZM373.378 130.504L382.441 109.961H384.48L393.542 130.504H391.066L388.793 125.259H378.099L375.855 130.504H373.378ZM383.431 112.759L378.973 123.249H387.948L383.49 112.759H383.431ZM396.588 130.504V109.961H404.718C406.932 109.961 408.622 110.496 409.788 111.564C410.973 112.633 411.565 114.157 411.565 116.139C411.565 118.101 410.973 119.626 409.788 120.714C408.622 121.782 406.932 122.316 404.718 122.316H398.977V130.504H396.588ZM398.977 120.306H404.426C407.612 120.306 409.205 118.917 409.205 116.139C409.205 113.342 407.612 111.943 404.426 111.943H398.977V120.306ZM415.027 130.504V109.961H417.417V130.504H415.027ZM198.943 159.504V147.179H196.146V145.343H198.943V144.848C198.943 142.963 199.41 141.535 200.342 140.564C201.294 139.593 202.751 139.049 204.713 138.932L205.849 138.874L206.053 140.681L204.713 140.768C203.508 140.865 202.634 141.225 202.09 141.846C201.566 142.468 201.304 143.371 201.304 144.556V145.343H205.383V147.179H201.304V159.504H198.943ZM213.377 159.767C211.998 159.767 210.803 159.466 209.793 158.863C208.783 158.261 207.996 157.416 207.433 156.328C206.889 155.221 206.617 153.919 206.617 152.424C206.617 150.928 206.889 149.636 207.433 148.548C207.996 147.441 208.783 146.586 209.793 145.984C210.803 145.382 211.998 145.081 213.377 145.081C214.737 145.081 215.922 145.382 216.932 145.984C217.961 146.586 218.748 147.441 219.292 148.548C219.855 149.636 220.137 150.928 220.137 152.424C220.137 153.919 219.855 155.221 219.292 156.328C218.748 157.416 217.961 158.261 216.932 158.863C215.922 159.466 214.737 159.767 213.377 159.767ZM213.377 157.873C214.698 157.873 215.757 157.406 216.553 156.474C217.35 155.522 217.748 154.172 217.748 152.424C217.748 150.656 217.35 149.306 216.553 148.373C215.757 147.441 214.698 146.975 213.377 146.975C212.037 146.975 210.968 147.441 210.172 148.373C209.395 149.306 209.006 150.656 209.006 152.424C209.006 154.172 209.395 155.522 210.172 156.474C210.968 157.406 212.037 157.873 213.377 157.873ZM223.682 159.504V145.343H225.984V147.878C226.742 146.169 228.296 145.226 230.646 145.052L231.492 144.964L231.666 147.004L230.18 147.179C228.84 147.295 227.82 147.723 227.121 148.461C226.421 149.18 226.072 150.17 226.072 151.433V159.504H223.682ZM245.776 159.504L239.686 145.343H242.251L246.942 156.824L251.692 145.343H254.11L247.991 159.504H245.776ZM256.314 141.817V139.165H259.228V141.817H256.314ZM256.606 159.504V145.343H258.966V159.504H256.606ZM268.157 159.767C267.05 159.767 266.001 159.611 265.01 159.3C264.019 158.99 263.203 158.553 262.562 157.989L263.32 156.328C264.019 156.892 264.787 157.309 265.622 157.581C266.477 157.834 267.341 157.96 268.215 157.96C269.323 157.96 270.158 157.756 270.721 157.348C271.285 156.94 271.566 156.387 271.566 155.687C271.566 155.143 271.382 154.716 271.013 154.405C270.644 154.075 270.061 153.822 269.264 153.647L266.613 153.065C264.204 152.54 262.999 151.297 262.999 149.335C262.999 148.053 263.505 147.023 264.515 146.246C265.544 145.469 266.885 145.081 268.536 145.081C269.507 145.081 270.43 145.236 271.304 145.547C272.198 145.838 272.936 146.275 273.519 146.858L272.732 148.519C272.169 147.995 271.508 147.596 270.75 147.324C270.012 147.033 269.274 146.887 268.536 146.887C267.448 146.887 266.622 147.101 266.059 147.528C265.496 147.956 265.214 148.519 265.214 149.218C265.214 150.306 265.933 151.006 267.37 151.316L270.022 151.87C271.265 152.142 272.207 152.579 272.848 153.181C273.489 153.764 273.81 154.561 273.81 155.571C273.81 156.872 273.295 157.902 272.266 158.659C271.236 159.398 269.867 159.767 268.157 159.767ZM282.419 159.767C279.019 159.767 277.32 157.892 277.32 154.143V145.343H279.68V154.114C279.68 155.376 279.932 156.309 280.437 156.911C280.962 157.513 281.778 157.814 282.885 157.814C284.09 157.814 285.071 157.416 285.828 156.62C286.586 155.804 286.965 154.726 286.965 153.385V145.343H289.325V159.504H287.023V157.115C286.576 157.97 285.945 158.63 285.129 159.096C284.332 159.543 283.429 159.767 282.419 159.767ZM298.199 159.767C297.228 159.767 296.354 159.582 295.577 159.213C294.819 158.824 294.217 158.3 293.77 157.64C293.323 156.979 293.1 156.241 293.1 155.425C293.1 154.395 293.362 153.579 293.886 152.977C294.43 152.375 295.314 151.948 296.538 151.695C297.781 151.423 299.471 151.287 301.608 151.287H302.541V150.384C302.541 149.18 302.288 148.315 301.783 147.791C301.297 147.247 300.511 146.975 299.423 146.975C298.568 146.975 297.742 147.101 296.946 147.353C296.15 147.587 295.334 147.975 294.498 148.519L293.682 146.8C294.421 146.275 295.314 145.858 296.363 145.547C297.432 145.236 298.452 145.081 299.423 145.081C301.249 145.081 302.599 145.527 303.473 146.421C304.367 147.315 304.814 148.704 304.814 150.588V159.504H302.599V157.057C302.23 157.892 301.657 158.553 300.88 159.038C300.122 159.524 299.229 159.767 298.199 159.767ZM298.578 157.989C299.743 157.989 300.695 157.591 301.433 156.794C302.172 155.979 302.541 154.949 302.541 153.706V152.832H301.637C300.064 152.832 298.821 152.909 297.908 153.065C297.014 153.201 296.383 153.453 296.014 153.822C295.664 154.172 295.489 154.658 295.489 155.279C295.489 156.076 295.761 156.726 296.305 157.232C296.868 157.737 297.626 157.989 298.578 157.989ZM313.534 159.767C312.096 159.767 311.009 159.349 310.27 158.514C309.552 157.659 309.192 156.425 309.192 154.813V138.961H311.553V154.638C311.553 156.717 312.378 157.756 314.029 157.756C314.515 157.756 314.952 157.698 315.341 157.581L315.282 159.563C314.68 159.699 314.097 159.767 313.534 159.767ZM331.301 159.767C329.883 159.767 328.659 159.466 327.629 158.863C326.6 158.242 325.803 157.377 325.24 156.27C324.696 155.143 324.424 153.832 324.424 152.336C324.424 150.083 325.036 148.315 326.26 147.033C327.484 145.731 329.164 145.081 331.301 145.081C332.175 145.081 333.04 145.236 333.894 145.547C334.749 145.858 335.458 146.295 336.021 146.858L335.206 148.577C334.642 148.033 334.021 147.635 333.341 147.383C332.68 147.13 332.049 147.004 331.447 147.004C329.97 147.004 328.834 147.47 328.037 148.402C327.241 149.316 326.843 150.636 326.843 152.365C326.843 154.055 327.241 155.396 328.037 156.387C328.834 157.358 329.97 157.843 331.447 157.843C332.049 157.843 332.68 157.717 333.341 157.465C334.021 157.212 334.642 156.804 335.206 156.241L336.021 157.96C335.458 158.523 334.739 158.97 333.865 159.3C333.01 159.611 332.156 159.767 331.301 159.767ZM344.388 159.767C343.009 159.767 341.814 159.466 340.804 158.863C339.794 158.261 339.007 157.416 338.444 156.328C337.9 155.221 337.628 153.919 337.628 152.424C337.628 150.928 337.9 149.636 338.444 148.548C339.007 147.441 339.794 146.586 340.804 145.984C341.814 145.382 343.009 145.081 344.388 145.081C345.748 145.081 346.933 145.382 347.943 145.984C348.972 146.586 349.759 147.441 350.303 148.548C350.866 149.636 351.148 150.928 351.148 152.424C351.148 153.919 350.866 155.221 350.303 156.328C349.759 157.416 348.972 158.261 347.943 158.863C346.933 159.466 345.748 159.767 344.388 159.767ZM344.388 157.873C345.709 157.873 346.768 157.406 347.564 156.474C348.361 155.522 348.759 154.172 348.759 152.424C348.759 150.656 348.361 149.306 347.564 148.373C346.768 147.441 345.709 146.975 344.388 146.975C343.048 146.975 341.979 147.441 341.183 148.373C340.406 149.306 340.017 150.656 340.017 152.424C340.017 154.172 340.406 155.522 341.183 156.474C341.979 157.406 343.048 157.873 344.388 157.873ZM354.693 159.504V145.343H356.995V147.761C357.462 146.868 358.122 146.198 358.977 145.751C359.831 145.304 360.793 145.081 361.861 145.081C365.222 145.081 366.903 146.946 366.903 150.675V159.504H364.542V150.821C364.542 149.5 364.28 148.538 363.756 147.936C363.25 147.315 362.435 147.004 361.308 147.004C360.006 147.004 358.967 147.412 358.19 148.228C357.432 149.024 357.054 150.093 357.054 151.433V159.504H354.693ZM376.937 159.767C375.266 159.767 374.013 159.33 373.178 158.455C372.343 157.562 371.925 156.28 371.925 154.609V147.179H369.157V145.343H371.925V141.001H374.285V145.343H378.772V147.179H374.285V154.376C374.285 155.483 374.518 156.328 374.984 156.911C375.451 157.474 376.208 157.756 377.257 157.756C377.568 157.756 377.879 157.717 378.19 157.64C378.501 157.562 378.782 157.484 379.035 157.406L379.443 159.213C379.19 159.349 378.821 159.475 378.335 159.592C377.85 159.708 377.384 159.767 376.937 159.767ZM387.681 159.767C385.447 159.767 383.679 159.116 382.378 157.814C381.076 156.493 380.425 154.706 380.425 152.453C380.425 150.996 380.717 149.714 381.3 148.606C381.882 147.48 382.679 146.615 383.689 146.013C384.719 145.391 385.904 145.081 387.244 145.081C389.167 145.081 390.673 145.702 391.76 146.946C392.848 148.169 393.392 149.859 393.392 152.016V152.919H382.727C382.805 154.531 383.271 155.765 384.126 156.62C384.981 157.455 386.166 157.873 387.681 157.873C388.536 157.873 389.352 157.746 390.129 157.494C390.906 157.222 391.644 156.785 392.343 156.183L393.159 157.843C392.518 158.446 391.702 158.922 390.711 159.271C389.721 159.602 388.711 159.767 387.681 159.767ZM387.302 146.829C385.962 146.829 384.903 147.247 384.126 148.082C383.349 148.917 382.893 150.015 382.757 151.375H391.353C391.294 149.937 390.915 148.82 390.216 148.024C389.536 147.227 388.565 146.829 387.302 146.829ZM396.808 159.504V145.343H399.11V147.761C399.576 146.868 400.237 146.198 401.091 145.751C401.946 145.304 402.908 145.081 403.976 145.081C407.337 145.081 409.017 146.946 409.017 150.675V159.504H406.657V150.821C406.657 149.5 406.395 148.538 405.87 147.936C405.365 147.315 404.549 147.004 403.423 147.004C402.121 147.004 401.082 147.412 400.305 148.228C399.547 149.024 399.168 150.093 399.168 151.433V159.504H396.808ZM419.051 159.767C417.381 159.767 416.128 159.33 415.293 158.455C414.457 157.562 414.04 156.28 414.04 154.609V147.179H411.271V145.343H414.04V141.001H416.4V145.343H420.887V147.179H416.4V154.376C416.4 155.483 416.633 156.328 417.099 156.911C417.565 157.474 418.323 157.756 419.372 157.756C419.683 157.756 419.994 157.717 420.304 157.64C420.615 157.562 420.897 157.484 421.149 157.406L421.557 159.213C421.305 159.349 420.936 159.475 420.45 159.592C419.965 159.708 419.498 159.767 419.051 159.767Z" fill="#71767E"/>
<g clip-path="url(#clip0)">
<path d="M15.0789 51.662C15.7105 58.2146 20.6053 64.0567 29.9211 64.0567C37.1053 64.0567 40.8158 60.1883 40.8158 55.6883C40.8158 51.8199 38.1316 48.8199 32.2895 47.6357L21.5526 45.2673C8.68421 42.4251 1.97368 34.0567 1.97368 24.0304C1.97368 11.2409 13.5789 0.504089 28.7368 0.504089C49.1053 0.504089 55.6579 13.6883 56.8421 20.8725L42.1579 25.0567C41.5263 20.8725 38.4474 14.162 28.6579 14.162C22.5 14.162 18.1579 18.0304 18.1579 22.5304C18.1579 26.3988 21 29.2409 25.5 30.1883L36.5526 32.3988C50.4474 35.3988 57.6316 43.7673 57.6316 54.5041C57.6316 65.5567 48.6316 77.8725 30.0789 77.8725C9 77.8725 0.868421 64.0567 0 55.8462L15.0789 51.662Z" fill="black"/>
<path d="M81.7105 75.5831H64.342V2.71465H81.2368V8.39886C86.1315 0.740962 93.5526 0.583067 102.789 0.662015C120.632 0.819909 129.158 13.5304 129.158 29.5568V75.662H111.789V32.5568C111.789 23.5568 107.763 16.3725 96.7894 16.3725C86.921 16.3725 81.7105 24.0304 81.7105 33.5831V75.5831Z" fill="black"/>
<path d="M169.184 77.5567C147.79 77.5567 134.053 60.662 134.053 38.7936C134.053 17.7146 147.947 0.661987 168.947 0.661987C181.816 0.661987 185.842 3.97778 190.342 8.31988V2.79357H207.237V62.3199C207.237 68.3199 207.869 74.162 207.947 75.662H191.369C191.053 74.0041 190.816 72.9778 190.658 69.3462C187.184 73.6883 179.684 77.5567 169.184 77.5567ZM171.158 62.5567C182.526 62.5567 190.421 52.8462 190.421 38.7936C190.421 24.7409 182.605 15.7409 171.158 15.7409C159.474 15.7409 151.421 24.7409 151.421 38.7936C151.421 52.6883 159.079 62.5567 171.158 62.5567Z" fill="black"/>
<path d="M218.921 99.2673V2.71463H235.658V8.39884C242.684 3.58305 247.658 1.13568 258.869 1.13568C280.421 1.13568 292.5 17.5567 292.5 39.1094C292.5 60.9778 279.158 77.3988 258.237 77.3988C247.737 77.3988 242.684 74.162 236.132 69.4252V99.3462H218.921V99.2673ZM255.553 16.5304C244.184 16.5304 235.974 25.5304 235.974 39.1094C235.974 53.0041 244.184 62.0041 255.553 62.0041C267.079 62.0041 275.132 53.0041 275.132 39.1094C275.132 25.4515 267.237 16.5304 255.553 16.5304Z" fill="black"/>
<path d="M298.816 99.5041V2.95147H315.553V8.55674C322.579 3.662 327.553 1.29358 338.763 1.29358C360.316 1.29358 372.395 17.7146 372.395 39.2673C372.395 61.1357 359.053 77.5567 338.131 77.5567C327.631 77.5567 322.579 74.3199 316.026 69.5831V99.5041H298.816ZM335.447 16.6883C324.079 16.6883 315.868 25.6883 315.868 39.2673C315.868 53.162 324.079 62.162 335.447 62.162C346.974 62.162 355.026 53.162 355.026 39.2673C355.026 25.6883 347.131 16.6883 335.447 16.6883Z" fill="black"/>
<path d="M421.342 19.9251C419.368 19.6094 417.474 19.4515 415.658 19.4515C402.158 19.4515 396.079 27.2672 396.079 40.8462V75.583H378.71V2.71462H395.605V8.16198C402.947 1.21461 408.079 1.21462 416.684 1.84619C418.737 2.00409 420.553 2.16198 421.342 2.31988V19.9251Z" fill="black"/>
</g>
<path d="M10.7659 128.89L21.5315 118.124L28.8197 125.412C30.7403 127.333 30.7403 130.447 28.8197 132.367L21.5315 139.655L10.7659 128.89Z" fill="#34C88A"/>
<path d="M3.47748 143.133C1.55692 141.213 1.55692 138.099 3.47748 136.178L10.7657 128.89L21.5313 139.656L10.7657 150.421L3.47748 143.133Z" fill="#2B87F9"/>
<path d="M10.7659 150.421L21.5315 139.656L28.8197 146.944C30.7403 148.865 30.7403 151.978 28.8197 153.899L21.5315 161.187L10.7659 150.421Z" fill="#0EC4FF"/>
<path d="M170.324 150.421L159.558 161.187L152.27 153.899C150.349 151.978 150.349 148.864 152.27 146.944L159.558 139.656L170.324 150.421Z" fill="#7D2EFF"/>
<path d="M177.612 136.178C179.533 138.099 179.533 141.212 177.612 143.133L170.324 150.421L159.558 139.655L170.324 128.89L177.612 136.178Z" fill="#E11F59"/>
<path d="M170.324 128.89L159.558 139.656L152.27 132.368C150.349 130.447 150.349 127.333 152.27 125.413L159.558 118.124L170.324 128.89Z" fill="#FFBB00"/>
<path d="M86.2744 170.499V120.511H94.9396V123.454C98.5773 120.961 101.152 119.694 106.956 119.694C118.115 119.694 124.368 128.195 124.368 139.354C124.368 150.676 117.461 159.177 106.629 159.177C101.193 159.177 98.5773 157.502 95.1848 155.049V170.54H86.2744V170.499ZM105.24 127.664C99.3539 127.664 95.1031 132.324 95.1031 139.354C95.1031 146.548 99.3539 151.207 105.24 151.207C111.207 151.207 115.376 146.548 115.376 139.354C115.376 132.283 111.289 127.664 105.24 127.664Z" fill="#71767E"/>
<path d="M57.5216 159.504C46.445 159.504 39.333 150.757 39.333 139.436C39.333 128.522 46.5267 119.694 57.399 119.694C64.0614 119.694 66.1459 121.41 68.4757 123.658V120.797H77.2226V151.616C77.2226 154.722 77.5495 157.747 77.5904 158.523H69.007C68.8435 157.665 68.7209 157.134 68.6392 155.254C66.8407 157.502 62.9578 159.504 57.5216 159.504ZM58.5435 151.738C64.4292 151.738 68.5165 146.711 68.5165 139.436C68.5165 132.16 64.4701 127.501 58.5435 127.501C52.4942 127.501 48.3251 132.16 48.3251 139.436C48.3251 146.629 52.2898 151.738 58.5435 151.738Z" fill="#71767E"/>
<rect x="133.052" y="120.722" width="8.70391" height="37.825" fill="#71767E"/>
<rect x="133.052" y="108.771" width="8.70391" height="8.28366" fill="#71767E"/>
<defs>
<clipPath id="clip0">
<rect width="421.342" height="99" fill="white" transform="translate(0 0.504089)"/>
</clipPath>
</defs>
</svg>
