<?xml version="1.0" encoding="UTF-8" standalone="no"?>
<svg
   xmlns:dc="http://purl.org/dc/elements/1.1/"
   xmlns:cc="http://creativecommons.org/ns#"
   xmlns:rdf="http://www.w3.org/1999/02/22-rdf-syntax-ns#"
   xmlns:svg="http://www.w3.org/2000/svg"
   xmlns="http://www.w3.org/2000/svg"
   xmlns:sodipodi="http://sodipodi.sourceforge.net/DTD/sodipodi-0.dtd"
   xmlns:inkscape="http://www.inkscape.org/namespaces/inkscape"
   style="fill-rule:evenodd"
   xml:space="preserve"
   id="svg2"
   viewBox="0 0 3.0164655 1.5690839"
   height="141.21754"
   width="271.4819"
   version="1.1"
   inkscape:version="0.91 r13725"
   sodipodi:docname="logo-master.svg"><sodipodi:namedview
     pagecolor="#ffffff"
     bordercolor="#666666"
     borderopacity="1"
     objecttolerance="10"
     gridtolerance="10"
     guidetolerance="10"
     inkscape:pageopacity="0"
     inkscape:pageshadow="2"
     inkscape:window-width="1716"
     inkscape:window-height="1367"
     id="namedview23"
     showgrid="false"
     fit-margin-top="0"
     fit-margin-left="0"
     fit-margin-right="0"
     fit-margin-bottom="0"
     inkscape:zoom="1.2339679"
     inkscape:cx="85.845736"
     inkscape:cy="-46.783745"
     inkscape:window-x="1714"
     inkscape:window-y="0"
     inkscape:window-maximized="0"
     inkscape:current-layer="svg2" /><metadata
     id="metadata28"><rdf:RDF><cc:Work
         rdf:about=""><dc:format>image/svg+xml</dc:format><dc:type
           rdf:resource="http://purl.org/dc/dcmitype/StillImage" /><dc:title></dc:title></cc:Work></rdf:RDF></metadata><defs
     id="defs4"><style
       id="style6"
       type="text/css" /></defs><g
     id="g4146"><path
       style="fill:#333333;fill-opacity:1;fill-rule:nonzero"
       id="path10"
       d="m 0.1670212,0.60165297 c 0.006139,0.005983 0.0141695,0.0130675 0.0236159,0.0210968 0.009604,0.008187 0.0210984,0.016533 0.0344814,0.0251911 0.013383,0.008502 0.02897,0.016533 0.046603,0.023933 0.0176346,0.0074 0.0376298,0.013539 0.0598298,0.0181061 0.0223566,0.004565 0.0470761,0.006927 0.0744709,0.007085 0.0234598,0 0.0462891,-0.002202 0.0689628,-0.006771 0.0225139,-0.004565 0.0436123,-0.0114927 0.0634497,-0.0206253 0.0196809,-0.009131 0.0371582,-0.0206252 0.0522721,-0.0344797 0.0151155,-0.0136984 0.0269236,-0.0299143 0.0355834,-0.0483355 0.008502,-0.0185793 0.0129102,-0.0393623 0.0130675,-0.0626644 C 0.63920006,0.50088817 0.6349497,0.48089177 0.6266052,0.46420317 0.6182592,0.44735677 0.6069243,0.43334297 0.5924393,0.42185017 0.578112,0.41051357 0.561579,0.40106717 0.5433156,0.39350947 0.524894,0.38610947 0.5055285,0.37996877 0.485376,0.37508787 0.4650658,0.37020687 0.4449117,0.36611387 0.4249169,0.36265087 0.4090148,0.35997487 0.3953164,0.35713987 0.383666,0.35414887 0.3718578,0.35115787 0.3627253,0.34706287 0.3562696,0.34186797 c -0.006454,-0.005196 -0.009604,-0.0124386 -0.00976,-0.0217273 -1.5764e-4,-0.004881 0.001573,-0.0102346 0.00551,-0.0159021 0.003935,-0.005669 0.0108638,-0.0105484 0.0210984,-0.014485 0.0100752,-0.004094 0.0245602,-0.006298 0.0432973,-0.006456 0.0171618,-1.5765e-4 0.0362123,0.003465 0.0573107,0.0110212 0.0209391,0.007715 0.0431395,0.0203102 0.0664416,0.0381025 L 0.6299117,0.24928897 C 0.6214097,0.24314797 0.6107035,0.23606377 0.5974783,0.22787667 0.5844091,0.21953267 0.5688221,0.21150147 0.550716,0.20362987 0.5326099,0.19559887 0.5118269,0.18898717 0.4883683,0.18379117 c -0.0233025,-0.005196 -0.0495969,-0.008029 -0.0785669,-0.008187 -0.0344798,1.5764e-4 -0.0647091,0.005039 -0.0906884,0.0143273 -0.0259777,0.009446 -0.0475489,0.0220427 -0.0648668,0.0377871 -0.0174773,0.0159021 -0.0305448,0.0335355 -0.0392046,0.0530587 -0.00866,0.0195232 -0.0130675,0.0395196 -0.0130675,0.0601453 1.5764e-4,0.0185777 0.00362,0.0358968 0.0102329,0.051957 0.006771,0.0160582 0.015587,0.0295989 0.0266082,0.04062 0.0110212,0.0107061 0.0236175,0.0195232 0.0379448,0.0261371 0.0141695,0.00677 0.02897,0.0122809 0.0442432,0.0163736 0.0108638,0.003306 0.021885,0.006141 0.0330623,0.00866 0.0111789,0.002362 0.0222005,0.004565 0.0330639,0.006456 0.009604,0.001573 0.0193659,0.002991 0.0296005,0.004408 0.0100752,0.001573 0.019837,0.003465 0.0292834,0.005667 0.009448,0.002207 0.0177923,0.005039 0.0251928,0.008818 0.004565,0.002202 0.00866,0.005354 0.0125947,0.009604 0.003935,0.004094 0.005983,0.0103923 0.006298,0.0187366 -1.5765e-4,0.009131 -0.003146,0.0168464 -0.008818,0.0231448 -0.005667,0.006141 -0.0130675,0.0110212 -0.0220411,0.0147988 -0.008975,0.00362 -0.0184216,0.006298 -0.0284984,0.007873 -0.0100769,0.001573 -0.0195232,0.002362 -0.0284968,0.002362 C 0.3839806,0.58638083 0.366346,0.58339247 0.3494992,0.57756347 0.3326528,0.57158047 0.316593,0.56355167 0.301321,0.55331667 0.2862055,0.54324147 0.2718782,0.53158937 0.258653,0.51852187 l -0.0916327,0.0831323 z"
       inkscape:connector-curvature="0" /><path
       style="fill:#333333;fill-opacity:1;fill-rule:nonzero"
       id="path12"
       d="m 0.80392539,0.19260888 -0.14642557,0 0,0.49217682 0.14548126,0 0,-0.2663978 c -1.5764e-4,-0.015587 1.5605e-4,-0.0305448 0.001259,-0.0451875 9.4391e-4,-0.014485 0.00378,-0.0275525 0.008346,-0.0392046 0.004565,-0.0118082 0.0121232,-0.0209391 0.0226716,-0.027868 0.0105484,-0.006927 0.0253484,-0.0103907 0.0442416,-0.0105484 0.014485,-1.5764e-4 0.0273964,0.002836 0.0390469,0.008975 0.0114943,0.005983 0.0203102,0.015587 0.0261371,0.0288123 0.001888,0.00425 0.003306,0.009289 0.00425,0.0151139 9.439e-4,0.005827 0.001573,0.013383 0.001892,0.0226732 3.137e-4,0.009289 4.6991e-4,0.0212545 4.6991e-4,0.0358968 l 0,0.27773443 0.14453531,0 0,-0.3372488 c 1.576e-4,-0.0255062 -0.00157,-0.0475489 -0.00535,-0.0664416 -0.00378,-0.0187366 -0.010391,-0.0349525 -0.019837,-0.0481782 -0.00945,-0.013383 -0.022829,-0.0247196 -0.039991,-0.0336948 -0.012911,-0.007085 -0.027081,-0.0121232 -0.0425103,-0.0152716 -0.0152732,-0.003146 -0.0303871,-0.004565 -0.0453448,-0.004565 -0.017633,1.5764e-4 -0.0341659,0.001888 -0.0494375,0.005352 -0.0154293,0.003465 -0.0288123,0.007715 -0.0403066,0.0125964 -0.008344,0.004094 -0.0152716,0.008029 -0.0209407,0.0121232 -0.00551,0.004094 -0.0105484,0.008187 -0.0147988,0.0125964 -0.004409,0.00425 -0.008818,0.008974 -0.013383,0.0140118 l 0,-0.0434546 z"
       inkscape:connector-curvature="0" /><path
       style="fill:#333333;fill-opacity:1;fill-rule:nonzero"
       id="path14"
       d="m 1.2818906,0.33147261 c 8.009e-4,-0.004723 0.00241,-0.0102329 0.00466,-0.0165313 0.00225,-0.006456 0.00595,-0.0127541 0.011261,-0.0190505 0.00531,-0.006298 0.012868,-0.0114943 0.022842,-0.0155887 0.00997,-0.004094 0.023164,-0.006296 0.039411,-0.006456 0.01319,1.5928e-4 0.023486,0.002207 0.031045,0.006298 0.00756,0.003939 0.013031,0.009133 0.016568,0.0154309 0.00354,0.006296 0.00595,0.0127525 0.00708,0.0196809 0.00113,0.006926 0.00193,0.0132252 0.00226,0.0190504 l 0,0.0264505 c -0.015925,0.002836 -0.033138,0.005983 -0.051798,0.009446 -0.018658,0.003465 -0.037319,0.007242 -0.055979,0.0110212 -0.018659,0.003935 -0.035869,0.008031 -0.051635,0.0121232 -0.015924,0.00425 -0.029116,0.008502 -0.039411,0.0127541 -0.010617,0.00425 -0.022038,0.0102329 -0.034102,0.0181061 -0.012066,0.007872 -0.023647,0.017633 -0.034584,0.029285 -0.010778,0.0118082 -0.019786,0.0253484 -0.026703,0.0410916 -0.00692,0.015587 -0.010617,0.0333793 -0.010778,0.053218 0,0.0174756 0.00306,0.0349525 0.00949,0.0525859 0.00643,0.0174773 0.016248,0.0336948 0.029597,0.0483355 0.013352,0.0148005 0.030403,0.0266098 0.051314,0.0354257 0.020913,0.008975 0.045684,0.0135407 0.07464,0.0138557 0.024612,-1.5605e-4 0.046165,-0.003306 0.064664,-0.009131 0.018501,-0.005825 0.035069,-0.0132252 0.049545,-0.0220427 0.014477,-0.008975 0.027829,-0.0181078 0.040215,-0.0273948 l 0,0.0453436 0.1441042,0 c -0.014797,-0.009624 -0.012845,-0.027027 -0.012845,-0.0774621 l 0,-0.28718242 c -1.609e-4,-0.0212544 -0.00402,-0.0395182 -0.011422,-0.0547916 -0.0074,-0.0152716 -0.01721,-0.0281816 -0.029596,-0.0385739 -0.012387,-0.0105484 -0.026222,-0.0188928 -0.041502,-0.0253486 -0.015283,-0.006454 -0.030725,-0.011335 -0.04665,-0.0146411 -0.015764,-0.003306 -0.030884,-0.005511 -0.045041,-0.006771 -0.014316,-0.001103 -0.026702,-0.001733 -0.037158,-0.001573 -0.019786,-1.5605e-4 -0.039248,9.439e-4 -0.058713,0.003306 -0.019301,0.002362 -0.037961,0.006612 -0.055979,0.0129098 -0.018016,0.006298 -0.034747,0.0154293 -0.050348,0.0272387 -0.0148,0.0116504 -0.025899,0.0237736 -0.033299,0.0363684 -0.00724,0.0125964 -0.012225,0.025035 -0.014797,0.037472 -0.00257,0.0124386 -0.00418,0.024248 -0.00499,0.0357407 l 0.1486346,0 z m 0.1351212,0.11713891 c -1.624e-4,0.0127541 -6.415e-4,0.0251928 -0.00161,0.0370005 -9.644e-4,0.0119659 -0.00306,0.0233025 -0.00627,0.0340082 -0.00338,0.0108639 -0.00853,0.0209391 -0.015442,0.0302293 -0.00708,0.009289 -0.016568,0.0177907 -0.028793,0.0253484 -0.00772,0.004881 -0.015925,0.00866 -0.024451,0.0116504 -0.00869,0.002836 -0.017533,0.004409 -0.026703,0.004409 -0.011581,-1.5765e-4 -0.021555,-0.002676 -0.029921,-0.007715 -0.00836,-0.005037 -0.014799,-0.011335 -0.019303,-0.0188927 -0.0045,-0.007558 -0.00676,-0.0154293 -0.00676,-0.0234598 1.641e-4,-0.009446 0.00226,-0.0174773 0.00643,-0.0242468 0.00418,-0.006771 0.00949,-0.012437 0.015925,-0.0171602 0.0066,-0.004567 0.013513,-0.008502 0.020752,-0.0118098 0.0074,-0.00315 0.014155,-0.005825 0.020588,-0.008187 l 0.095552,-0.0311753 z"
       inkscape:connector-curvature="0" /><path
       style="fill:#333333;fill-opacity:1;fill-rule:nonzero"
       id="path16"
       d="m 1.7142666,0.19260888 -0.1294198,0 0,0.66316179 0.1464243,0 0,-0.20310579 c 0.012754,0.007873 0.024877,0.0149578 0.036685,0.0212562 0.011652,0.006298 0.024247,0.0111789 0.037787,0.0148 0.013541,0.00362 0.029443,0.005352 0.047391,0.00551 0.028183,-1.5764e-4 0.052901,-0.00425 0.074471,-0.0121232 0.021571,-0.007872 0.040307,-0.018735 0.056051,-0.0322757 0.015744,-0.0136984 0.02897,-0.029285 0.039677,-0.0467623 0.010706,-0.0174756 0.019208,-0.0357395 0.025506,-0.055105 0.00645,-0.0193659 0.01102,-0.0385741 0.013697,-0.0576262 0.00284,-0.0192082 0.00409,-0.0373143 0.00409,-0.0543184 -1.576e-4,-0.0410932 -0.00567,-0.0774632 -0.016533,-0.10926734 -0.010864,-0.0316468 -0.025978,-0.0584127 -0.045344,-0.08014 -0.019366,-0.0217273 -0.042037,-0.0382586 -0.068017,-0.0494375 -0.025979,-0.0111789 -0.054161,-0.0168464 -0.084548,-0.0168464 -0.018264,1.5764e-4 -0.035268,0.002047 -0.051013,0.005983 -0.015587,0.003935 -0.029601,0.009133 -0.041881,0.0157444 -0.012281,0.006456 -0.022672,0.0136984 -0.030859,0.0217273 -0.00236,0.001892 -0.00472,0.004252 -0.00709,0.006927 -0.00236,0.002676 -0.00472,0.005354 -0.00709,0.008346 l 0,-0.0464469 z m 0.135089,0.093523 c 0.0148,0.003935 0.027239,0.0107061 0.037157,0.0204679 0.010077,0.009762 0.01795,0.0215696 0.023933,0.0354257 0.00583,0.0136968 0.010075,0.0286545 0.012595,0.0447143 0.00268,0.0159021 0.00393,0.032118 0.00378,0.0486509 0,0.0195232 -0.00189,0.0384164 -0.00598,0.0566802 -0.00393,0.0182639 -0.010077,0.0347948 -0.018422,0.0494375 -0.00834,0.014485 -0.018893,0.0261371 -0.031805,0.0346391 -0.01291,0.008658 -0.028181,0.0130675 -0.045816,0.0132252 -0.011966,0 -0.023616,-0.002521 -0.03511,-0.0074 -0.011335,-0.004881 -0.021412,-0.0119659 -0.030072,-0.0209407 -0.00646,-0.006927 -0.012123,-0.0159021 -0.017477,-0.0269236 -0.00519,-0.0111789 -0.00945,-0.0245602 -0.012595,-0.0403066 -0.00315,-0.015587 -0.00488,-0.0338505 -0.00488,-0.0546322 0,-0.0234598 0.00236,-0.0451875 0.00724,-0.0651839 0.00504,-0.0201525 0.012595,-0.0371566 0.022987,-0.0510127 0.010548,-0.0140118 0.022357,-0.0242468 0.035268,-0.0305432 0.01291,-0.006141 0.025978,-0.00929 0.039361,-0.009133 0.00661,0 0.013225,9.439e-4 0.019839,0.002836 z"
       inkscape:connector-curvature="0" /><path
       style="fill:#333333;fill-opacity:1;fill-rule:nonzero"
       id="path18"
       d="m 2.2148527,0.19260888 -0.1294198,0 0,0.66316179 0.1464243,0 0,-0.20310579 c 0.012753,0.007873 0.024876,0.0149578 0.036685,0.0212562 0.01165,0.006298 0.024247,0.0111789 0.037789,0.0148 0.013542,0.00362 0.029445,0.005352 0.047391,0.00551 0.028182,-1.5764e-4 0.052901,-0.00425 0.074471,-0.0121232 0.021571,-0.007872 0.040306,-0.018735 0.056051,-0.0322757 0.015744,-0.0136984 0.028971,-0.029285 0.039677,-0.0467623 0.010706,-0.0174756 0.019209,-0.0357395 0.025506,-0.055105 0.00645,-0.0193659 0.01102,-0.0385741 0.013697,-0.0576262 0.00282,-0.0192082 0.00409,-0.0373143 0.00409,-0.0543184 -1.577e-4,-0.0410932 -0.00567,-0.0774632 -0.016532,-0.10926734 -0.010865,-0.0316468 -0.025976,-0.0584127 -0.045344,-0.08014 -0.019364,-0.0217273 -0.042037,-0.0382586 -0.068017,-0.0494375 -0.02598,-0.0111789 -0.054161,-0.0168464 -0.084548,-0.0168464 -0.018265,1.5764e-4 -0.035268,0.002047 -0.051013,0.005983 -0.015589,0.003935 -0.0296,0.009133 -0.041881,0.0157444 -0.012279,0.006456 -0.02267,0.0136984 -0.030859,0.0217273 -0.00237,0.001892 -0.00472,0.004252 -0.00709,0.006927 -0.00237,0.002676 -0.00472,0.005354 -0.00709,0.008346 l 0,-0.0464469 z m 0.135089,0.093523 c 0.0148,0.003935 0.027238,0.0107061 0.037155,0.0204679 0.010077,0.009762 0.01795,0.0215696 0.023933,0.0354257 0.00583,0.0136968 0.010076,0.0286545 0.012593,0.0447143 0.0027,0.0159021 0.00392,0.032118 0.00376,0.0486509 0,0.0195232 -0.00188,0.0384164 -0.00598,0.0566802 -0.00392,0.0182639 -0.010077,0.0347948 -0.01842,0.0494375 -0.00834,0.014485 -0.018894,0.0261371 -0.031802,0.0346391 -0.012908,0.008658 -0.028182,0.0130675 -0.045816,0.0132252 -0.011964,0 -0.023618,-0.002521 -0.035108,-0.0074 -0.011335,-0.004881 -0.021411,-0.0119659 -0.030074,-0.0209407 -0.00646,-0.006927 -0.012124,-0.0159021 -0.017476,-0.0269236 -0.00519,-0.0111789 -0.00945,-0.0245602 -0.012593,-0.0403066 -0.00315,-0.015587 -0.00488,-0.0338505 -0.00488,-0.0546322 0,-0.0234598 0.00237,-0.0451875 0.00724,-0.0651839 0.00504,-0.0201525 0.012593,-0.0371566 0.022989,-0.0510127 0.01055,-0.0140118 0.022355,-0.0242468 0.035267,-0.0305432 0.012912,-0.006141 0.02598,-0.00929 0.039362,-0.009133 0.00662,0 0.013227,9.439e-4 0.019838,0.002836 z"
       inkscape:connector-curvature="0" /><path
       style="fill:#333333;fill-opacity:1;fill-rule:nonzero"
       id="path20"
       d="m 2.7296178,0.19072107 -0.1417008,0 0,0.49406463 0.1454797,0 0,-0.27773442 c 0,-0.0154293 0.00143,-0.0280257 0.00441,-0.0379448 0.00282,-0.009762 0.00787,-0.0174757 0.014645,-0.0233009 0.00693,-0.005827 0.016218,-0.01055 0.028027,-0.0140134 0.01165,-0.00362 0.026135,-0.00677 0.043612,-0.009762 l 0.048178,-0.007558 0,-0.12847551 c -0.025032,0.002521 -0.046132,0.006613 -0.063451,0.0119659 -0.017317,0.005354 -0.032276,0.0119671 -0.044714,0.0195232 -0.012594,0.007558 -0.024088,0.0160598 -0.034479,0.0251927 l 0,-0.0519583 z"
       inkscape:connector-curvature="0" /><polygon
       style="fill:#2b87f9;fill-opacity:1"
       id="polygon22"
       transform="matrix(0.40861505,0,0,0.40861505,-1.8700801,-1.944505)"
       points="4.82707,4.75877 5.27229,4.75877 5.27229,5.00921 4.82707,5.00921 4.82707,5.41302 4.57663,5.41302 4.57663,4.75877 4.58359,4.75877 " /><polygon
       style="fill:#2b87f9;fill-opacity:1"
       id="polygon24"
       transform="matrix(0.40861505,0,0,0.40861505,-1.8700801,-1.944505)"
       points="11.7084,6.93414 11.2631,6.93414 11.2631,6.6837 11.7084,6.6837 11.7084,6.27989 11.9588,6.27989 11.9588,6.93414 11.9519,6.93414 " /></g><text
     xml:space="preserve"
     style="font-style:normal;font-weight:normal;font-size:0.44444439px;line-height:125%;font-family:sans-serif;letter-spacing:0px;word-spacing:0px;fill:#818a95;fill-opacity:1;stroke:none;stroke-width:1px;stroke-linecap:butt;stroke-linejoin:miter;stroke-opacity:1"
     x="-0.021443944"
     y="1.4578644"
     id="text4151"
     sodipodi:linespacing="125%"><tspan
       sodipodi:role="line"
       id="tspan4153"
       x="-0.021443944"
       y="1.4578644"
       style="font-style:normal;font-variant:normal;font-weight:normal;font-stretch:normal;font-size:0.55555558px;font-family:Consolas;-inkscape-font-specification:Consolas">&lt;api_docs&gt;</tspan></text>
</svg>