<svg width="271" height="119" viewBox="0 0 271 119" fill="none" xmlns="http://www.w3.org/2000/svg">
<path fill-rule="evenodd" clip-rule="evenodd" d="M19.234 105.829L16.5496 108.538L0 94.7216L16.5496 80.9056L19.234 83.6392L5.81207 94.6723L19.234 105.829Z" fill="#818A95"/>
<path fill-rule="evenodd" clip-rule="evenodd" d="M44.2308 108.144L44.1323 104.819C42.786 106.149 41.4151 107.109 40.0195 107.7C38.6404 108.292 37.1874 108.587 35.6605 108.587C34.2485 108.587 33.0418 108.407 32.0402 108.045C31.0387 107.684 30.2096 107.191 29.5529 106.568C28.9126 105.927 28.4364 105.18 28.1245 104.326C27.829 103.473 27.6812 102.545 27.6812 101.544C27.6812 99.0645 28.6006 97.1271 30.4394 95.7315C32.2947 94.3196 35.0284 93.6136 38.6404 93.6136H43.7629V91.4463C43.7629 89.9851 43.295 88.8194 42.3591 87.9492C41.4233 87.0627 39.9949 86.6194 38.0739 86.6194C36.6784 86.6194 35.2993 86.7752 33.9365 87.0869C32.5902 87.3986 31.1947 87.8419 29.7499 88.4168V84.5503C30.2917 84.353 30.891 84.1641 31.5477 83.9838C32.2208 83.7865 32.9268 83.614 33.6656 83.4663C34.4045 83.3186 35.1761 83.2036 35.9806 83.1213C36.7851 83.0226 37.5978 82.9733 38.4187 82.9733C39.9128 82.9733 41.2591 83.1376 42.4576 83.4663C43.6561 83.7949 44.6659 84.2957 45.4868 84.9685C46.3241 85.6417 46.9644 86.4872 47.4077 87.5051C47.851 88.5231 48.0727 89.7216 48.0727 91.1007V108.143H44.2308L44.2308 108.144ZM43.7629 96.8888H38.3202C37.2531 96.8888 36.3336 96.9956 35.562 97.2093C34.7903 97.4229 34.1582 97.7266 33.6657 98.1205C33.1731 98.5145 32.8037 98.9906 32.5574 99.5489C32.3276 100.091 32.2126 100.706 32.2126 101.396C32.2126 101.872 32.2865 102.332 32.4342 102.775C32.582 103.202 32.82 103.588 33.1485 103.933C33.4768 104.261 33.9037 104.524 34.4291 104.721C34.9545 104.918 35.5948 105.017 36.35 105.017C37.3351 105.017 38.4598 104.721 39.724 104.13C41.0046 103.522 42.3509 102.57 43.7629 101.273V96.8891L43.7629 96.8888Z" fill="#818A95"/>
<path fill-rule="evenodd" clip-rule="evenodd" d="M77.2562 95.3373C77.2562 97.5373 76.9442 99.4582 76.3203 101.1C75.7129 102.742 74.8673 104.105 73.7837 105.188C72.7001 106.272 71.4195 107.084 69.9418 107.626C68.4642 108.168 66.8634 108.439 65.1395 108.439C64.3514 108.439 63.5633 108.398 62.7753 108.315C62.0036 108.233 61.2155 108.093 60.411 107.897V118.24H56.1259V83.4171H59.9431L60.214 87.5545C61.4454 85.8634 62.7588 84.6813 64.1544 84.0081C65.5499 83.3186 67.0604 82.9738 68.6858 82.9738C70.0978 82.9738 71.3374 83.2695 72.4046 83.8608C73.4718 84.4521 74.3666 85.2894 75.089 86.3728C75.8114 87.4399 76.3532 88.737 76.7144 90.2639C77.0756 91.7744 77.2562 93.4655 77.2562 95.3371L77.2562 95.3373ZM72.8725 95.5343C72.8725 94.2372 72.774 93.0469 72.577 91.9633C72.3964 90.8796 72.1008 89.952 71.6904 89.1804C71.2799 88.4088 70.7545 87.8095 70.1142 87.3825C69.4739 86.9395 68.7104 86.718 67.8239 86.718C67.282 86.718 66.732 86.8082 66.1738 86.9885C65.6156 87.1526 65.0328 87.4397 64.4253 87.8501C63.8342 88.2441 63.2021 88.7777 62.529 89.4509C61.8722 90.1076 61.1662 90.9285 60.411 91.9136V103.907C61.1991 104.236 62.0282 104.498 62.8984 104.695C63.7685 104.876 64.6223 104.966 65.4596 104.966C67.7746 104.966 69.5888 104.186 70.9023 102.626C72.2157 101.05 72.8725 98.6858 72.8725 95.5335L72.8725 95.5343Z" fill="#818A95"/>
<path fill-rule="evenodd" clip-rule="evenodd" d="M92.3281 86.9639H85.0138V83.4176H96.6626V104.572H104.026V108.143H84.2011V104.572H92.3281V86.9639V86.9639ZM93.8304 73.0495C94.3067 73.0495 94.75 73.1396 95.1603 73.32C95.5707 73.484 95.9237 73.7222 96.2193 74.0345C96.531 74.3462 96.7691 74.7074 96.9337 75.1181C97.1141 75.5121 97.2043 75.9472 97.2043 76.4234C97.2043 76.8833 97.1141 77.3184 96.9337 77.7286C96.7697 78.1389 96.5316 78.5001 96.2193 78.8122C95.9239 79.1239 95.5709 79.3703 95.1603 79.5512C94.75 79.7152 94.3067 79.7973 93.8304 79.7973C93.3541 79.7973 92.9108 79.7152 92.5006 79.5512C92.0902 79.3709 91.729 79.1245 91.4169 78.8122C91.1216 78.5005 90.8834 78.1393 90.7024 77.7286C90.5384 77.3182 90.4564 76.8832 90.4564 76.4234C90.4564 75.947 90.5384 75.5119 90.7024 75.1181C90.8828 74.7078 91.121 74.3466 91.4169 74.0345C91.7286 73.7228 92.0898 73.4846 92.5006 73.32C92.9109 73.1396 93.3542 73.0495 93.8304 73.0495Z" fill="#818A95"/>
<path fill-rule="evenodd" clip-rule="evenodd" d="M135.475 118.241H107.745V114.694H135.475V118.241Z" fill="#818A95"/>
<path fill-rule="evenodd" clip-rule="evenodd" d="M138.209 96.2977C138.209 94.1962 138.496 92.3327 139.071 90.7073C139.645 89.0654 140.458 87.6863 141.509 86.5699C142.576 85.437 143.848 84.5833 145.326 84.0086C146.82 83.4173 148.478 83.1216 150.301 83.1216C151.089 83.1216 151.86 83.1709 152.616 83.2696C153.387 83.3683 154.143 83.5241 154.881 83.7372V73.3444H159.191V108.143H155.349L155.201 103.464C154.003 105.204 152.706 106.493 151.31 107.33C149.915 108.168 148.404 108.586 146.779 108.586C145.367 108.586 144.119 108.291 143.035 107.699C141.968 107.108 141.073 106.279 140.351 105.212C139.645 104.128 139.112 102.831 138.75 101.321C138.389 99.8103 138.208 98.1356 138.208 96.2967L138.209 96.2977ZM142.593 96.0272C142.593 99.0153 143.028 101.248 143.898 102.726C144.785 104.187 146.032 104.918 147.641 104.918C148.725 104.918 149.866 104.433 151.065 103.465C152.28 102.496 153.552 101.059 154.882 99.1549V87.6785C154.176 87.3499 153.396 87.1035 152.542 86.9395C151.688 86.7591 150.843 86.669 150.006 86.669C147.674 86.669 145.852 87.4242 144.538 88.9347C143.241 90.4452 142.593 92.8095 142.593 96.0274L142.593 96.0272Z" fill="#818A95"/>
<path fill-rule="evenodd" clip-rule="evenodd" d="M188.769 95.5835C188.769 97.5045 188.498 99.2694 187.957 100.878C187.415 102.471 186.635 103.842 185.617 104.991C184.599 106.124 183.359 107.011 181.898 107.651C180.437 108.275 178.779 108.587 176.924 108.587C175.15 108.587 173.558 108.316 172.146 107.774C170.75 107.216 169.56 106.404 168.575 105.336C167.606 104.269 166.859 102.947 166.334 101.371C165.825 99.7951 165.57 97.9809 165.57 95.9286C165.57 94.0077 165.841 92.2591 166.383 90.683C166.924 89.0904 167.704 87.7277 168.722 86.5949C169.74 85.4456 170.98 84.559 172.441 83.9351C173.902 83.2948 175.561 82.9746 177.416 82.9746C179.189 82.9746 180.773 83.2537 182.169 83.8117C183.581 84.3534 184.771 85.1579 185.74 86.2252C186.725 87.2759 187.472 88.5894 187.981 90.1656C188.506 91.7418 188.769 93.5478 188.769 95.5836L188.769 95.5835ZM184.385 95.7805C184.385 94.2536 184.213 92.9238 183.868 91.7909C183.539 90.6416 183.063 89.6894 182.439 88.9342C181.816 88.1625 181.052 87.5878 180.149 87.2102C179.263 86.8162 178.269 86.6192 177.169 86.6192C175.889 86.6192 174.789 86.8737 173.869 87.3827C172.966 87.8754 172.219 88.5403 171.628 89.3776C171.054 90.2149 170.627 91.1918 170.347 92.3082C170.085 93.4083 169.953 94.5658 169.953 95.7807C169.953 97.3076 170.118 98.6457 170.446 99.795C170.791 100.944 171.276 101.905 171.899 102.676C172.523 103.432 173.279 104.006 174.165 104.4C175.052 104.778 176.053 104.967 177.17 104.967C178.45 104.967 179.542 104.721 180.445 104.228C181.365 103.719 182.112 103.046 182.686 102.208C183.278 101.371 183.704 100.402 183.967 99.3023C184.246 98.1859 184.385 97.012 184.385 95.7806V95.7805Z" fill="#818A95"/>
<path fill-rule="evenodd" clip-rule="evenodd" d="M214.234 107.232C213.117 107.659 211.968 107.971 210.786 108.168C209.62 108.382 208.414 108.489 207.166 108.489C203.258 108.489 200.246 107.43 198.128 105.312C196.026 103.194 194.975 100.099 194.975 96.0272C194.975 94.0734 195.279 92.3002 195.887 90.7076C196.494 89.1151 197.348 87.7524 198.448 86.6195C199.548 85.4867 200.861 84.6165 202.388 84.009C203.915 83.3852 205.598 83.0732 207.437 83.0732C208.717 83.0732 209.916 83.1634 211.032 83.3438C212.149 83.5241 213.216 83.8198 214.234 84.2307V88.3189C213.167 87.7608 212.075 87.3586 210.959 87.1121C209.859 86.8494 208.718 86.7181 207.535 86.7181C206.435 86.7181 205.393 86.9315 204.408 87.3582C203.439 87.7685 202.585 88.3678 201.846 89.156C201.108 89.9441 200.525 90.9046 200.098 92.0374C199.671 93.1702 199.458 94.4509 199.458 95.8793C199.458 98.8674 200.18 101.109 201.625 102.603C203.086 104.08 205.106 104.819 207.683 104.819C208.849 104.819 209.974 104.688 211.057 104.425C212.157 104.162 213.216 103.768 214.234 103.243V107.232L214.234 107.232Z" fill="#818A95"/>
<path fill-rule="evenodd" clip-rule="evenodd" d="M242.383 101.396C242.383 102.266 242.235 103.046 241.94 103.735C241.645 104.425 241.242 105.04 240.733 105.582C240.224 106.108 239.633 106.559 238.96 106.937C238.287 107.314 237.565 107.626 236.793 107.873C236.038 108.119 235.258 108.3 234.453 108.415C233.649 108.53 232.861 108.587 232.089 108.587C230.414 108.587 228.871 108.513 227.459 108.366C226.063 108.218 224.693 107.98 223.346 107.651V103.711C224.791 104.121 226.228 104.433 227.656 104.646C229.084 104.86 230.505 104.967 231.917 104.967C233.969 104.967 235.488 104.688 236.473 104.13C237.458 103.572 237.95 102.776 237.95 101.741C237.95 101.298 237.868 100.904 237.704 100.559C237.557 100.198 237.278 99.861 236.867 99.5492C236.457 99.2205 235.817 98.884 234.946 98.5395C234.093 98.1945 232.919 97.8004 231.425 97.3573C230.308 97.0287 229.274 96.6593 228.321 96.2491C227.386 95.8224 226.573 95.3217 225.883 94.7469C225.194 94.1725 224.652 93.4993 224.258 92.7274C223.864 91.9558 223.667 91.0445 223.667 89.9937C223.667 89.3042 223.823 88.5489 224.135 87.728C224.463 86.9071 225.013 86.1436 225.785 85.4376C226.556 84.7317 227.599 84.1488 228.912 83.6891C230.226 83.2127 231.867 82.9746 233.838 82.9746C234.806 82.9746 235.882 83.0321 237.064 83.1471C238.246 83.2457 239.477 83.4264 240.758 83.6891V87.5063C239.412 87.1776 238.131 86.9395 236.916 86.7918C235.718 86.6278 234.675 86.5457 233.788 86.5457C232.721 86.5457 231.818 86.6278 231.079 86.7918C230.357 86.9558 229.766 87.1858 229.306 87.4818C228.863 87.7608 228.543 88.0974 228.346 88.4915C228.149 88.8692 228.05 89.2796 228.05 89.7228C228.05 90.1659 228.132 90.5681 228.296 90.9296C228.476 91.2909 228.796 91.6439 229.256 91.9886C229.733 92.3172 230.389 92.6538 231.226 92.9983C232.064 93.327 233.156 93.6882 234.502 94.0819C235.963 94.5086 237.195 94.9601 238.196 95.4365C239.198 95.8965 240.01 96.4136 240.634 96.988C241.258 97.5624 241.701 98.2109 241.964 98.9336C242.243 99.656 242.383 100.477 242.383 101.396L242.383 101.396Z" fill="#818A95"/>
<path fill-rule="evenodd" clip-rule="evenodd" d="M251.791 83.6392L254.45 80.9056L271 94.7216L254.45 108.538L251.791 105.829L265.213 94.7708L251.791 83.6392Z" fill="#818A95"/>
<g clip-path="url(#clip0)">
<path d="M56.7186 26.9724C57.0518 30.4271 59.6321 33.5073 64.5439 33.5073C68.3315 33.5073 70.2881 31.4677 70.2881 29.0952C70.2881 27.0556 68.873 25.4739 65.7929 24.8495L60.1319 23.6008C53.3469 22.1024 49.8091 17.6902 49.8091 12.4039C49.8091 5.66084 55.9278 0 63.9196 0C74.6584 0 78.1134 6.9512 78.7376 10.739L70.9957 12.945C70.6625 10.739 69.0391 7.20096 63.878 7.20096C60.6312 7.20096 58.342 9.24052 58.342 11.6131C58.342 13.6527 59.8404 15.1511 62.2129 15.6506L68.0405 16.8161C75.3659 18.3978 79.1541 22.81 79.1541 28.4708C79.1541 34.2982 74.409 40.7915 64.6272 40.7915C53.5135 40.7915 49.2263 33.5073 48.7684 29.1784L56.7186 26.9724Z" fill="black"/>
<path d="M91.8495 39.5844H82.6919V1.16547H91.5996V4.1624C94.1804 0.124872 98.093 0.0416243 102.963 0.0832484C112.37 0.166497 116.865 6.86795 116.865 15.3176V39.6261H107.708V16.8993C107.708 12.1542 105.585 8.36641 99.7997 8.36641C94.5964 8.36641 91.8495 12.4039 91.8495 17.4404V39.5844Z" fill="black"/>
<path d="M137.969 40.625C126.689 40.625 119.446 31.7175 119.446 20.1877C119.446 9.07402 126.772 0.08325 137.844 0.08325C144.629 0.08325 146.751 1.83146 149.124 4.12078V1.2071H158.032V32.5916C158.032 35.755 158.365 38.8352 158.406 39.6261H149.665C149.499 38.7519 149.374 38.2108 149.29 36.2961C147.459 38.5854 143.505 40.625 137.969 40.625ZM139.009 32.7164C145.003 32.7164 149.165 27.5967 149.165 20.1877C149.165 12.7785 145.045 8.03341 139.009 8.03341C132.849 8.03341 128.603 12.7785 128.603 20.1877C128.603 27.5135 132.641 32.7164 139.009 32.7164Z" fill="black"/>
<path d="M164.192 52.0716V1.16547H173.016V4.1624C176.72 1.62333 179.343 0.332992 185.254 0.332992C196.617 0.332992 202.985 8.99077 202.985 20.3542C202.985 31.884 195.951 40.5418 184.921 40.5418C179.385 40.5418 176.72 38.8352 173.266 36.3378V52.1132H164.192V52.0716ZM183.505 8.44967C177.511 8.44967 173.183 13.1948 173.183 20.3542C173.183 27.68 177.511 32.4251 183.505 32.4251C189.582 32.4251 193.828 27.68 193.828 20.3542C193.828 13.1532 189.666 8.44967 183.505 8.44967Z" fill="black"/>
<path d="M206.315 52.1965V1.29034H215.14V4.24565C218.844 1.66496 221.467 0.41624 227.377 0.41624C238.74 0.41624 245.109 9.07402 245.109 20.4374C245.109 31.9672 238.075 40.625 227.044 40.625C221.508 40.625 218.844 38.9184 215.389 36.421V52.1965H206.315ZM225.629 8.53291C219.635 8.53291 215.306 13.278 215.306 20.4374C215.306 27.7632 219.635 32.5083 225.629 32.5083C231.706 32.5083 235.951 27.7632 235.951 20.4374C235.951 13.278 231.789 8.53291 225.629 8.53291Z" fill="black"/>
<path d="M270.916 10.2395C269.875 10.073 268.876 9.98978 267.919 9.98978C260.801 9.98978 257.596 14.1106 257.596 21.2699V39.5844H248.439V1.16547H257.346V4.03753C261.217 0.374616 263.923 0.374616 268.46 0.707611C269.542 0.790856 270.5 0.874102 270.916 0.957353V10.2395Z" fill="black"/>
<path d="M10.1681 0H20.336V6.88356C20.336 8.69747 18.8656 10.168 17.0516 10.168H10.1681V0Z" fill="#34C88A"/>
<path d="M0 3.28441C0 1.47049 1.47048 0 3.28441 0H10.168V10.168H0V3.28441Z" fill="#2B87F9"/>
<path d="M0 10.168H10.168V17.0516C10.168 18.8656 8.69747 20.336 6.88356 20.336H0V10.168Z" fill="#0EC4FF"/>
<path d="M20.1471 40.4709H9.97913V33.5874C9.97913 31.7734 11.4496 30.303 13.2636 30.303H20.1471V40.4709Z" fill="#7D2EFF"/>
<path d="M30.3152 37.1865C30.3152 39.0004 28.8447 40.4709 27.0308 40.4709H20.1472V30.303H30.3152V37.1865Z" fill="#E11F59"/>
<path d="M30.3152 30.3032H20.1472V23.4197C20.1472 21.6057 21.6177 20.1352 23.4316 20.1352H30.3152V30.3032Z" fill="#FFBB00"/>
</g>
<defs>
<clipPath id="clip0">
<rect width="271" height="52.1965" fill="white"/>
</clipPath>
</defs>
</svg>
