<svg width="271" height="113" viewBox="0 0 271 113" fill="none" xmlns="http://www.w3.org/2000/svg">
<path fill-rule="evenodd" clip-rule="evenodd" d="M19.5535 101.942L16.8725 104.356L0.343933 92.0473L16.8725 79.739L19.5535 82.1743L6.14862 92.0034L19.5535 101.942Z" fill="#818A95"/>
<path fill-rule="evenodd" clip-rule="evenodd" d="M44.5186 104.005L44.4202 101.043C43.0757 102.228 41.7065 103.083 40.3127 103.61C38.9353 104.136 37.4841 104.4 35.9592 104.4C34.549 104.4 33.3438 104.239 32.3435 103.917C31.3433 103.595 30.5152 103.156 29.8593 102.601C29.2198 102.03 28.7443 101.365 28.4328 100.604C28.1376 99.8435 27.99 99.0171 27.99 98.1249C27.99 95.9163 28.9083 94.1904 30.7448 92.9471C32.5977 91.6892 35.3278 91.0603 38.9353 91.0603H44.0513V89.1295C44.0513 87.8277 43.584 86.7892 42.6493 86.014C41.7147 85.2242 40.2881 84.8293 38.3696 84.8293C36.9758 84.8293 35.5984 84.9682 34.2374 85.2458C32.8928 85.5235 31.4991 85.9184 30.0561 86.4306V82.986C30.5972 82.8102 31.1957 82.642 31.8516 82.4813C32.5239 82.3055 33.229 82.1519 33.9669 82.0203C34.7047 81.8887 35.4754 81.7863 36.2789 81.7129C37.0824 81.6251 37.894 81.5811 38.7139 81.5811C40.2061 81.5811 41.5507 81.7275 42.7477 82.0203C43.9447 82.3131 44.9531 82.7592 45.773 83.3586C46.6093 83.9583 47.2488 84.7116 47.6915 85.6184C48.1342 86.5252 48.3556 87.593 48.3556 88.8216V104.004H44.5186L44.5186 104.005ZM44.0513 93.9781H38.6156C37.5497 93.9781 36.6315 94.0732 35.8608 94.2636C35.0901 94.4539 34.4588 94.7245 33.9669 95.0753C33.475 95.4264 33.106 95.8506 32.8601 96.3479C32.6305 96.8305 32.5157 97.379 32.5157 97.9934C32.5157 98.4177 32.5895 98.8273 32.737 99.222C32.8846 99.6022 33.1223 99.9459 33.4503 100.253C33.7783 100.546 34.2046 100.78 34.7293 100.955C35.2541 101.131 35.8936 101.219 36.6478 101.219C37.6317 101.219 38.7549 100.956 40.0175 100.429C41.2965 99.8876 42.6411 99.0392 44.0513 97.8837V93.9784L44.0513 93.9781Z" fill="#818A95"/>
<path fill-rule="evenodd" clip-rule="evenodd" d="M77.5021 92.5958C77.5021 94.5558 77.1905 96.2671 76.5674 97.7298C75.9607 99.1924 75.1162 100.406 74.034 101.372C72.9518 102.337 71.6728 103.061 70.197 103.544C68.7212 104.026 67.1225 104.268 65.4008 104.268C64.6137 104.268 63.8266 104.231 63.0395 104.158C62.2688 104.084 61.4818 103.96 60.6783 103.785V113H56.3986V81.9765H60.211L60.4815 85.6624C61.7113 84.1558 63.0231 83.1027 64.4169 82.503C65.8107 81.8887 67.3193 81.5815 68.9426 81.5815C70.3528 81.5815 71.5908 81.8449 72.6566 82.3717C73.7225 82.8985 74.6161 83.6445 75.3376 84.6096C76.0591 85.5603 76.6002 86.7158 76.961 88.0761C77.3217 89.4218 77.5021 90.9283 77.5021 92.5957L77.5021 92.5958ZM73.1239 92.7714C73.1239 91.6159 73.0256 90.5554 72.8288 89.59C72.6484 88.6247 72.3533 87.7983 71.9433 87.1108C71.5334 86.4234 71.0086 85.8895 70.3692 85.5092C69.7297 85.1145 68.9672 84.9172 68.0817 84.9172C67.5406 84.9172 66.9913 84.9975 66.4338 85.1582C65.8763 85.3043 65.2942 85.5601 64.6874 85.9257C64.0971 86.2767 63.4658 86.7521 62.7935 87.3518C62.1376 87.9369 61.4326 88.6682 60.6783 89.5458V100.231C61.4653 100.523 62.2934 100.757 63.1625 100.933C64.0315 101.093 64.8842 101.174 65.7205 101.174C68.0325 101.174 69.8444 100.479 71.1562 99.0894C72.468 97.6852 73.1239 95.5789 73.1239 92.7706L73.1239 92.7714Z" fill="#818A95"/>
<path fill-rule="evenodd" clip-rule="evenodd" d="M92.5549 85.1362H85.2498V81.9769H96.8838V100.823H104.238V104.005H84.4382V100.823H92.5549V85.1362V85.1362ZM94.0552 72.7402C94.5309 72.7402 94.9737 72.8205 95.3835 72.9812C95.7933 73.1273 96.1458 73.3395 96.4411 73.6177C96.7524 73.8954 96.9902 74.2172 97.1546 74.5831C97.3348 74.9341 97.4248 75.3217 97.4248 75.7459C97.4248 76.1557 97.3348 76.5433 97.1546 76.9087C96.9908 77.2743 96.753 77.5961 96.4411 77.8741C96.1461 78.1518 95.7935 78.3712 95.3835 78.5324C94.9736 78.6786 94.5309 78.7516 94.0552 78.7516C93.5795 78.7516 93.1368 78.6786 92.7271 78.5324C92.3172 78.3718 91.9565 78.1523 91.6448 77.8741C91.3498 77.5964 91.112 77.2746 90.9312 76.9087C90.7674 76.5431 90.6855 76.1555 90.6855 75.7459C90.6855 75.3216 90.7674 74.9339 90.9312 74.5831C91.1114 74.2175 91.3492 73.8957 91.6448 73.6177C91.9561 73.34 92.3169 73.1279 92.7271 72.9812C93.1369 72.8205 93.5796 72.7402 94.0552 72.7402Z" fill="#818A95"/>
<path fill-rule="evenodd" clip-rule="evenodd" d="M135.647 113H107.952V109.841H135.647V113Z" fill="#818A95"/>
<path fill-rule="evenodd" clip-rule="evenodd" d="M138.378 93.4515C138.378 91.5793 138.664 89.9192 139.238 88.4711C139.812 87.0084 140.623 85.7798 141.673 84.7852C142.739 83.776 144.01 83.0154 145.485 82.5034C146.978 81.9766 148.634 81.7132 150.454 81.7132C151.241 81.7132 152.012 81.7572 152.766 81.8451C153.537 81.9329 154.291 82.0718 155.029 82.2616V73.0029H159.333V104.004H155.496L155.348 99.8355C154.151 101.386 152.856 102.534 151.462 103.28C150.068 104.026 148.56 104.399 146.936 104.399C145.526 104.399 144.28 104.136 143.198 103.609C142.132 103.082 141.238 102.343 140.517 101.393C139.812 100.428 139.279 99.272 138.918 97.9264C138.557 96.5807 138.377 95.0888 138.377 93.4506L138.378 93.4515ZM142.756 93.2105C142.756 95.8726 143.19 97.8618 144.059 99.1782C144.945 100.48 146.191 101.131 147.798 101.131C148.88 101.131 150.02 100.699 151.217 99.8364C152.43 98.9734 153.701 97.6936 155.029 95.9969V85.7728C154.324 85.4801 153.545 85.2606 152.693 85.1145C151.84 84.9538 150.995 84.8735 150.159 84.8735C147.831 84.8735 146.011 85.5463 144.699 86.892C143.403 88.2376 142.756 90.3439 142.756 93.2107L142.756 93.2105Z" fill="#818A95"/>
<path fill-rule="evenodd" clip-rule="evenodd" d="M188.873 92.8152C188.873 94.5265 188.603 96.0989 188.062 97.5324C187.521 98.9511 186.742 100.172 185.725 101.196C184.709 102.206 183.471 102.995 182.011 103.566C180.552 104.122 178.896 104.4 177.043 104.4C175.272 104.4 173.681 104.158 172.271 103.676C170.877 103.179 169.689 102.455 168.705 101.504C167.737 100.553 166.991 99.3755 166.467 97.9714C165.958 96.5672 165.704 94.9509 165.704 93.1226C165.704 91.4113 165.975 89.8536 166.516 88.4494C167.057 87.0306 167.835 85.8166 168.852 84.8074C169.869 83.7836 171.107 82.9937 172.566 82.4379C174.025 81.8675 175.682 81.5823 177.535 81.5823C179.305 81.5823 180.888 81.8308 182.282 82.328C183.692 82.8106 184.881 83.5273 185.848 84.4781C186.832 85.4142 187.578 86.5843 188.086 87.9885C188.611 89.3927 188.873 91.0016 188.873 92.8153L188.873 92.8152ZM184.495 92.9907C184.495 91.6304 184.323 90.4457 183.978 89.4365C183.65 88.4126 183.175 87.5643 182.552 86.8915C181.929 86.204 181.166 85.692 180.264 85.3556C179.379 85.0046 178.387 84.8291 177.288 84.8291C176.009 84.8291 174.911 85.0558 173.992 85.5093C173.09 85.9482 172.344 86.5406 171.754 87.2865C171.181 88.0324 170.754 88.9027 170.475 89.8973C170.213 90.8773 170.082 91.9085 170.082 92.9909C170.082 94.3512 170.246 95.5433 170.574 96.5671C170.919 97.591 171.402 98.4467 172.025 99.1341C172.648 99.8069 173.403 100.319 174.288 100.67C175.173 101.006 176.174 101.175 177.289 101.175C178.568 101.175 179.658 100.955 180.56 100.516C181.478 100.063 182.224 99.4631 182.798 98.7172C183.389 97.9712 183.815 97.1082 184.077 96.1282C184.356 95.1336 184.495 94.0878 184.495 92.9908V92.9907Z" fill="#818A95"/>
<path fill-rule="evenodd" clip-rule="evenodd" d="M214.306 103.193C213.191 103.573 212.043 103.851 210.862 104.027C209.698 104.217 208.493 104.312 207.247 104.312C203.344 104.312 200.335 103.369 198.22 101.482C196.121 99.595 195.072 96.8378 195.072 93.2105C195.072 91.4699 195.375 89.8902 195.982 88.4714C196.589 87.0526 197.441 85.8386 198.54 84.8294C199.639 83.8202 200.95 83.045 202.475 82.5038C204 81.948 205.681 81.6701 207.517 81.6701C208.797 81.6701 209.994 81.7504 211.109 81.9111C212.224 82.0718 213.289 82.3352 214.306 82.7013V86.3433C213.24 85.8462 212.15 85.4878 211.035 85.2683C209.936 85.0343 208.797 84.9173 207.616 84.9173C206.517 84.9173 205.476 85.1073 204.492 85.4874C203.525 85.853 202.672 86.3869 201.934 87.0891C201.196 87.7912 200.614 88.6468 200.188 89.6561C199.762 90.6653 199.549 91.8062 199.549 93.0787C199.549 95.7408 200.27 97.7373 201.713 99.0683C203.172 100.385 205.189 101.043 207.764 101.043C208.928 101.043 210.051 100.926 211.133 100.692C212.232 100.458 213.29 100.107 214.306 99.6388V103.193L214.306 103.193Z" fill="#818A95"/>
<path fill-rule="evenodd" clip-rule="evenodd" d="M242.419 97.9931C242.419 98.7683 242.272 99.463 241.977 100.077C241.682 100.692 241.28 101.24 240.772 101.723C240.263 102.191 239.673 102.593 239.001 102.93C238.328 103.266 237.607 103.544 236.836 103.763C236.082 103.983 235.303 104.144 234.5 104.246C233.696 104.349 232.909 104.4 232.138 104.4C230.466 104.4 228.924 104.334 227.514 104.202C226.12 104.071 224.751 103.859 223.407 103.566V100.055C224.85 100.421 226.284 100.699 227.711 100.889C229.138 101.08 230.556 101.175 231.966 101.175C234.016 101.175 235.533 100.926 236.516 100.429C237.5 99.9318 237.992 99.2225 237.992 98.3008C237.992 97.9061 237.91 97.5551 237.747 97.2477C237.599 96.9258 237.32 96.6259 236.911 96.3481C236.501 96.0553 235.861 95.7555 234.992 95.4486C234.139 95.1412 232.967 94.7902 231.475 94.3955C230.36 94.1027 229.327 93.7736 228.376 93.4082C227.441 93.028 226.629 92.5819 225.941 92.0699C225.252 91.5582 224.711 90.9585 224.317 90.2708C223.924 89.5833 223.727 88.7716 223.727 87.8354C223.727 87.2211 223.883 86.5483 224.194 85.8169C224.522 85.0856 225.072 84.4054 225.842 83.7765C226.613 83.1476 227.654 82.6283 228.966 82.2187C230.277 81.7944 231.917 81.5822 233.885 81.5822C234.852 81.5822 235.926 81.6334 237.107 81.7359C238.288 81.8238 239.517 81.9847 240.796 82.2187V85.6194C239.452 85.3266 238.173 85.1144 236.959 84.9829C235.762 84.8367 234.721 84.7637 233.836 84.7637C232.77 84.7637 231.868 84.8367 231.13 84.9829C230.409 85.129 229.818 85.3339 229.359 85.5976C228.917 85.8461 228.597 86.146 228.4 86.4971C228.203 86.8336 228.104 87.1992 228.104 87.5941C228.104 87.9888 228.186 88.3471 228.35 88.6691C228.53 88.991 228.85 89.3055 229.309 89.6126C229.785 89.9054 230.441 90.2052 231.277 90.5121C232.113 90.8049 233.204 91.1267 234.548 91.4775C236.008 91.8576 237.237 92.2599 238.238 92.6842C239.238 93.094 240.05 93.5547 240.673 94.0664C241.296 94.5781 241.738 95.1559 242.001 95.7997C242.279 96.4433 242.419 97.1746 242.419 97.9937L242.419 97.9931Z" fill="#818A95"/>
<path fill-rule="evenodd" clip-rule="evenodd" d="M251.815 82.1743L254.471 79.739L271 92.0473L254.471 104.356L251.815 101.942L265.22 92.0912L251.815 82.1743Z" fill="#818A95"/>
<g clip-path="url(#clip0)">
<path d="M56.7186 24.2871C57.0518 27.3979 59.6321 30.1714 64.5439 30.1714C68.3315 30.1714 70.2881 28.3349 70.2881 26.1986C70.2881 24.362 68.873 22.9378 65.7929 22.3756L60.1319 21.2512C53.3469 19.9019 49.8091 15.929 49.8091 11.1691C49.8091 5.09727 55.9277 0 63.9196 0C74.6584 0 78.1134 6.25917 78.7376 9.66985L70.9957 11.6563C70.6625 9.66985 69.0391 6.48405 63.878 6.48405C60.6312 6.48405 58.342 8.32057 58.342 10.4569C58.342 12.2934 59.8404 13.6427 62.2129 14.0925L68.0405 15.1419C75.3659 16.5662 79.1541 20.5391 79.1541 25.6364C79.1541 30.8836 74.409 36.7305 64.6272 36.7305C53.5135 36.7305 49.2263 30.1714 48.7684 26.2735L56.7186 24.2871Z" fill="black"/>
<path d="M91.8495 35.6435H82.6919V1.04945H91.5996V3.74802C94.1804 0.112449 98.093 0.037489 102.963 0.0749691C112.37 0.149929 116.865 6.18421 116.865 13.7927V35.681H107.708V15.2169C107.708 10.9442 105.585 7.53349 99.7997 7.53349C94.5964 7.53349 91.8495 11.1691 91.8495 15.7041V35.6435Z" fill="black"/>
<path d="M137.969 36.5805C126.689 36.5805 119.446 28.5598 119.446 18.1778C119.446 8.17063 126.772 0.0749512 137.844 0.0749512C144.629 0.0749512 146.751 1.64912 149.124 3.71052V1.08691H158.031V29.3469C158.031 32.1954 158.365 34.9689 158.406 35.681H149.665C149.499 34.8939 149.374 34.4067 149.29 32.6826C147.459 34.744 143.505 36.5805 137.969 36.5805ZM139.009 29.4593C145.003 29.4593 149.165 24.8493 149.165 18.1778C149.165 11.5063 145.045 7.23362 139.009 7.23362C132.849 7.23362 128.603 11.5063 128.603 18.1778C128.603 24.7743 132.641 29.4593 139.009 29.4593Z" fill="black"/>
<path d="M164.192 46.8876V1.04946H173.016V3.74803C176.72 1.46175 179.343 0.299866 185.254 0.299866C196.617 0.299866 202.985 8.09571 202.985 18.3278C202.985 28.7098 195.951 36.5056 184.921 36.5056C179.385 36.5056 176.72 34.9689 173.266 32.7201V46.9251H164.192V46.8876ZM183.505 7.60847C177.511 7.60847 173.183 11.8812 173.183 18.3278C173.183 24.9243 177.511 29.197 183.505 29.197C189.582 29.197 193.828 24.9243 193.828 18.3278C193.828 11.8437 189.666 7.60847 183.505 7.60847Z" fill="black"/>
<path d="M206.315 47V1.1619H215.14V3.82298C218.844 1.49922 221.467 0.374817 227.377 0.374817C238.74 0.374817 245.109 8.17066 245.109 18.4027C245.109 28.7847 238.075 36.5805 227.044 36.5805C221.508 36.5805 218.844 35.0439 215.389 32.795V47H206.315ZM225.629 7.68342C219.635 7.68342 215.306 11.9561 215.306 18.4027C215.306 24.9992 219.635 29.2719 225.629 29.2719C231.706 29.2719 235.951 24.9992 235.951 18.4027C235.951 11.9561 231.789 7.68342 225.629 7.68342Z" fill="black"/>
<path d="M270.916 9.22013C269.875 9.07021 268.876 8.99524 267.919 8.99524C260.801 8.99524 257.596 12.7058 257.596 19.1523V35.6435H248.439V1.04946H257.346V3.63558C261.217 0.337333 263.923 0.337334 268.46 0.637177C269.542 0.712134 270.5 0.787092 270.916 0.862055V9.22013Z" fill="black"/>
<path d="M10.1681 0H20.336V6.19826C20.336 7.83158 18.8656 9.1557 17.0516 9.1557H10.1681V0Z" fill="#34C88A"/>
<path d="M0 2.95743C0 1.32409 1.47048 0 3.28441 0H10.168V9.1557H0V2.95743Z" fill="#2B87F9"/>
<path d="M0 9.15576H10.168V15.354C10.168 16.9874 8.69747 18.3115 6.88356 18.3115H0V9.15576Z" fill="#0EC4FF"/>
<path d="M20.1471 36.4418H9.97913V30.2436C9.97913 28.6102 11.4496 27.2861 13.2636 27.2861H20.1471V36.4418Z" fill="#7D2EFF"/>
<path d="M30.3152 33.4844C30.3152 35.1177 28.8447 36.4418 27.0308 36.4418H20.1472V27.2861H30.3152V33.4844Z" fill="#E11F59"/>
<path d="M30.3152 27.2863H20.1472V21.0881C20.1472 19.4547 21.6177 18.1307 23.4316 18.1307H30.3152V27.2863Z" fill="#FFBB00"/>
</g>
<defs>
<clipPath id="clip0">
<rect width="271" height="47" fill="white"/>
</clipPath>
</defs>
</svg>
